<?xml version="1.0" encoding="UTF-8"?>
<!DOCTYPE svg PUBLIC "-//W3C//DTD SVG 1.1//EN" "http://www.w3.org/Graphics/SVG/1.1/DTD/svg11.dtd">
<!-- Creator: CorelDRAW 2021.5 -->
<svg xmlns="http://www.w3.org/2000/svg" xml:space="preserve" width="144.992mm" height="91.7222mm" version="1.1" style="shape-rendering:geometricPrecision; text-rendering:geometricPrecision; image-rendering:optimizeQuality; fill-rule:evenodd; clip-rule:evenodd"
viewBox="0 0 14499.16 9172.22"
 xmlns:xlink="http://www.w3.org/1999/xlink"
 xmlns:xodm="http://www.corel.com/coreldraw/odm/2003">
 <defs>
  <style type="text/css">
   <![CDATA[
    .fil2 {fill:#ED3237}
    .fil1 {fill:#00A859}
    .fil3 {fill:#3E4095}
    .fil0 {fill:#373435;fill-rule:nonzero}
   ]]>
  </style>
 </defs>
 <g id="Camada_x0020_1">
  <metadata id="CorelCorpID_0Corel-Layer"/>
  <path class="fil0" d="M3890.57 823.66l0 -814.81 3272.93 0c658.32,0 1158.56,67.07 1500.65,199.43 733.74,283.88 1125.92,1054.24 1125.92,1813.45 0,1264.64 -929.43,1850.53 -2078.25,2009.46 259.58,123.79 455.55,247.54 589.6,367.91 761.93,697.58 1516.87,2099.58 2085.13,2994.4l-1220.47 0c-530.33,-834.71 -1075.27,-1782.54 -1679.43,-2556.07 -249.63,-316.69 -570.2,-633.1 -987.99,-697.44l0 -871.96 468.84 0c446.93,0 794.17,-46.43 1045.14,-139.28 476.92,-173.11 766.69,-600.18 766.69,-1105.29 0,-918.67 -783.73,-1199.8 -1574.59,-1199.8l-3314.17 0z"/>
  <polygon class="fil0" points="10565.94,7393.5 10565.94,4264.98 8415.9,1050.32 8369.97,659.55 8430.96,440.97 9455,863.28 11109.14,3486.29 13355.81,8.85 14495.46,8.85 11545.74,4264.98 11545.74,7393.5 "/>
  <path class="fil0" d="M28.73 7393.5l2832.83 -7384.65 1074.38 0 3006.44 7384.65c-1646.98,0 -3293.92,0 -4940.91,0l0 -893.42 3488.06 0 -2090.8 -5528.36 -2333.47 6421.78 -1036.53 0z"/>
  <path class="fil0" d="M141.97 8467.6l129.71 -12.29c5.83,55.31 20.4,99.87 43.72,136.75 21.86,35.34 56.84,62.99 104.93,86.04 46.64,21.51 100.56,32.26 158.86,32.26 53.92,0 99.1,-7.68 139.91,-24.58 40.8,-16.9 69.95,-39.95 90.35,-69.14 18.95,-29.19 29.15,-59.92 29.15,-93.72 0,-33.81 -8.74,-64.54 -27.69,-90.66 -18.95,-24.58 -51.01,-46.09 -94.73,-64.53 -27.69,-10.75 -90.36,-29.19 -185.09,-53.77 -96.18,-24.59 -163.22,-46.1 -202.58,-67.61 -49.55,-27.65 -85.98,-62.99 -110.76,-102.94 -24.77,-41.48 -36.43,-87.58 -36.43,-136.75 0,-56.84 14.58,-109.08 45.18,-156.72 29.15,-47.63 72.87,-84.5 131.16,-110.62 56.85,-24.58 120.97,-36.88 190.92,-36.88 77.24,0 145.74,12.3 204.04,39.95 59.75,26.12 104.93,64.53 136.99,115.24 32.07,50.7 48.1,109.09 51.01,173.62l-132.63 10.75c-7.28,-69.14 -30.6,-121.38 -71.41,-156.72 -42.26,-36.87 -102.02,-53.77 -182.17,-53.77 -84.53,0 -144.28,15.36 -183.63,47.63 -37.89,32.26 -56.84,72.21 -56.84,116.77 0,39.95 13.12,72.21 40.81,98.33 26.24,24.59 96.19,52.24 208.41,78.36 112.21,26.12 189.46,50.71 230.26,70.68 61.21,29.19 106.39,66.07 134.08,110.63 29.15,46.09 43.73,98.33 43.73,156.71 0,58.39 -16.04,113.7 -48.1,164.41 -30.6,52.24 -77.24,92.18 -135.54,121.38 -59.75,29.19 -126.79,43.02 -201.12,43.02 -94.73,0 -173.42,-13.83 -237.55,-43.02 -64.13,-29.2 -113.68,-73.75 -150.11,-132.14 -36.43,-56.85 -55.38,-122.92 -56.84,-196.67zm953.12 -46.09c0,-145.96 39.36,-255.05 116.6,-327.27 65.58,-58.38 144.28,-87.58 237.55,-87.58 104.93,0 189.46,35.34 255.05,107.56 65.58,70.67 99.09,170.54 99.09,296.53 0,102.95 -14.57,182.84 -43.72,241.23 -29.15,58.38 -71.41,104.48 -126.79,136.74 -56.83,33.81 -116.59,49.17 -183.63,49.17 -104.93,0 -190.91,-35.34 -256.49,-107.55 -65.59,-70.68 -97.66,-173.62 -97.66,-308.83zm131.18 1.54c0,101.4 21.85,178.23 64.12,227.39 42.26,50.71 94.73,76.83 158.85,76.83 64.13,0 116.59,-26.12 160.31,-76.83 42.26,-50.7 62.67,-127.52 62.67,-232 0,-98.34 -21.86,-173.62 -64.12,-224.33 -42.27,-50.7 -94.73,-75.28 -158.86,-75.28 -64.12,0 -116.59,24.58 -158.85,75.28 -42.27,50.71 -64.12,125.99 -64.12,228.94zm724.3 397.94l0 -1100.11 128.25 0 0 1100.11 -128.25 0zm820.51 0l0 -118.31c-58.3,90.65 -138.46,135.21 -239.01,135.21 -45.18,0 -85.99,-9.22 -125.34,-27.66 -37.89,-16.9 -67.04,-39.94 -85.98,-67.6 -17.49,-27.66 -30.61,-59.92 -39.35,-99.87 -4.37,-26.12 -7.29,-69.14 -7.29,-125.99l0 -493.2 128.25 0 0 440.96c0,70.68 2.92,118.31 7.28,142.89 8.75,35.34 26.24,63 52.47,82.97 24.78,19.97 56.84,30.73 96.19,30.73 37.89,0 74.32,-10.76 107.84,-30.73 33.52,-21.51 56.84,-49.17 71.42,-84.5 13.12,-36.88 20.4,-87.58 20.4,-156.72l0 -425.6 128.25 0 0 797.42 -115.13 0zm810.3 -291.93l125.33 18.44c-13.11,90.65 -48.09,161.33 -104.93,213.57 -56.83,50.7 -126.79,76.82 -208.41,76.82 -103.46,0 -186.54,-35.34 -249.21,-107.55 -62.67,-70.68 -94.73,-172.09 -94.73,-305.76 0,-86.04 13.12,-159.79 40.81,-224.32 26.24,-64.53 68.49,-113.7 123.88,-145.97 53.92,-32.26 115.13,-47.63 179.25,-47.63 81.62,0 150.12,21.51 201.13,66.07 52.46,43.02 85.98,106.02 100.55,185.91l-123.88 19.98c-11.65,-53.78 -32.06,-93.73 -62.67,-121.38 -30.6,-26.12 -67.03,-39.95 -109.3,-39.95 -65.58,0 -118.04,24.58 -157.39,72.21 -40.81,49.17 -61.21,125.99 -61.21,232.01 0,107.55 18.94,184.38 58.29,233.54 39.35,47.63 90.36,72.22 153.03,72.22 49.55,0 91.81,-16.91 125.33,-49.17 33.52,-32.27 55.38,-81.43 64.13,-149.04zm-298.77 424.07l36.43 -132.14 94.73 0 -23.31 79.9c40.8,4.61 71.41,18.43 91.82,39.94 20.4,19.98 30.6,44.56 30.6,70.68 0,36.88 -17.49,69.14 -51.01,98.34 -34.98,29.19 -87.44,43.02 -155.93,43.02 -39.36,0 -74.33,0 -103.48,0l7.29 -95.26c30.6,1.53 53.92,1.53 68.49,1.53 43.73,0 75.79,-6.14 94.73,-19.97 13.12,-9.22 20.4,-21.51 20.4,-35.34 0,-9.22 -2.91,-16.9 -8.73,-24.58 -4.38,-6.15 -14.58,-12.3 -29.15,-18.44 -14.58,-4.61 -39.36,-7.68 -72.88,-7.68zm485.31 -531.62c0,-145.96 39.35,-255.05 116.59,-327.27 65.58,-58.38 144.28,-87.58 237.55,-87.58 104.94,0 189.46,35.34 255.05,107.56 65.58,70.67 99.09,170.54 99.09,296.53 0,102.95 -14.57,182.84 -43.72,241.23 -29.14,58.38 -71.41,104.48 -126.79,136.74 -56.83,33.81 -116.59,49.17 -183.63,49.17 -104.93,0 -190.91,-35.34 -256.49,-107.55 -65.58,-70.68 -97.65,-173.62 -97.65,-308.83zm131.17 1.54c0,101.4 21.85,178.23 64.12,227.39 42.27,50.71 94.73,76.83 158.85,76.83 64.13,0 116.59,-26.12 160.31,-76.83 42.27,-50.7 62.67,-127.52 62.67,-232 0,-98.34 -21.85,-173.62 -64.12,-224.33 -42.27,-50.7 -94.73,-75.28 -158.86,-75.28 -64.12,0 -116.58,24.58 -158.85,75.28 -42.27,50.71 -64.12,125.99 -64.12,228.94zm-10.21 -496.28c0,-52.24 13.12,-92.19 40.81,-122.92 26.23,-30.73 61.21,-46.09 103.47,-46.09 29.15,0 69.96,12.29 120.97,39.95 27.69,13.82 49.55,21.51 65.58,21.51 16.03,0 27.69,-4.61 34.97,-13.83 8.75,-7.68 14.58,-24.59 17.49,-50.71l91.82 0c-1.46,56.85 -14.58,99.87 -40.8,127.53 -26.24,29.19 -58.3,43.02 -97.66,43.02 -30.6,0 -69.95,-13.83 -118.04,-41.48 -32.06,-18.44 -55.38,-27.66 -69.95,-27.66 -16.03,0 -29.15,6.15 -39.36,18.44 -10.2,10.75 -14.57,29.19 -14.57,52.24l-94.73 0zm1253.34 636.09l132.62 18.44c-20.4,81.43 -59.74,144.43 -115.13,188.99 -56.83,44.55 -128.25,67.6 -215.68,67.6 -110.77,0 -198.21,-35.34 -262.34,-107.55 -65.58,-72.22 -97.64,-172.09 -97.64,-301.15 0,-133.67 32.06,-238.15 97.64,-311.9 65.58,-73.75 150.12,-110.63 255.04,-110.63 100.57,0 182.18,35.34 246.31,109.09 64.12,72.22 96.18,173.62 96.18,305.76 0,7.68 0,19.97 0,35.34l-564.01 0c4.38,87.58 27.69,153.64 69.96,201.27 42.26,46.1 94.73,69.15 158.86,69.15 46.63,0 85.98,-13.83 119.5,-39.95 33.51,-26.12 59.75,-67.61 78.69,-124.46zm-419.72 -216.64l421.18 0c-5.82,-67.6 -21.86,-116.77 -48.09,-150.57 -40.8,-52.24 -93.28,-78.36 -158.86,-78.36 -58.29,0 -107.84,19.97 -147.19,61.46 -40.81,41.48 -62.67,98.33 -67.04,167.47zm663.1 236.62l126.79 -21.51c7.3,53.77 27.7,93.72 59.76,122.91 32.06,29.2 78.7,43.03 137,43.03 58.28,0 102.01,-12.3 131.16,-38.42 27.69,-24.58 42.26,-53.77 42.26,-89.11 0,-29.19 -13.11,-53.78 -37.89,-70.68 -18.95,-12.29 -62.67,-27.65 -131.17,-46.09 -94.73,-24.59 -158.85,-46.1 -195.28,-64.53 -36.44,-18.44 -64.13,-44.56 -83.07,-76.83 -17.5,-30.73 -27.69,-67.6 -27.69,-106.01 0,-35.34 7.28,-67.61 23.31,-98.34 16.03,-30.73 36.44,-55.31 62.67,-75.28 20.4,-15.37 46.64,-29.2 81.61,-39.95 34.99,-10.76 71.42,-15.37 110.76,-15.37 58.3,0 110.76,9.22 155.94,27.66 45.18,16.9 77.25,41.49 99.1,72.21 20.41,30.73 36.44,72.22 43.73,124.46l-125.34 18.44c-5.82,-41.49 -21.86,-73.75 -49.55,-96.8 -26.24,-24.59 -65.58,-35.34 -115.13,-35.34 -58.3,0 -100.56,10.75 -125.34,30.73 -24.78,19.97 -37.88,44.56 -37.88,72.21 0,16.9 5.82,32.27 16.03,47.63 10.19,13.83 26.22,26.12 48.09,35.34 13.11,4.61 51.01,16.9 113.68,33.8 90.35,26.12 153.01,47.63 189.46,63 36.43,16.9 64.12,39.95 84.52,70.68 20.4,30.73 30.61,69.14 30.61,115.23 0,44.56 -11.67,87.58 -37.89,127.53 -24.78,39.95 -59.76,70.67 -107.85,92.19 -46.64,21.51 -99.1,32.26 -158.85,32.26 -97.65,0 -173.43,-21.51 -224.44,-64.53 -52.47,-43.02 -84.53,-106.02 -99.11,-190.52zm1678.91 -53.78l125.33 18.44c-13.11,90.65 -48.09,161.33 -104.93,213.57 -56.83,50.7 -126.79,76.82 -208.41,76.82 -103.46,0 -186.54,-35.34 -249.2,-107.55 -62.67,-70.68 -94.73,-172.09 -94.73,-305.76 0,-86.04 13.11,-159.79 40.8,-224.32 26.24,-64.53 68.49,-113.7 123.88,-145.97 53.92,-32.26 115.13,-47.63 179.25,-47.63 81.62,0 150.12,21.51 201.13,66.07 52.46,43.02 85.98,106.02 100.55,185.91l-123.88 19.98c-11.65,-53.78 -32.06,-93.73 -62.67,-121.38 -30.59,-26.12 -67.03,-39.95 -109.29,-39.95 -65.59,0 -118.05,24.58 -157.4,72.21 -40.81,49.17 -61.21,125.99 -61.21,232.01 0,107.55 18.94,184.38 58.29,233.54 39.35,47.63 90.36,72.22 153.03,72.22 49.55,0 91.81,-16.91 125.33,-49.17 33.52,-32.27 55.38,-81.43 64.13,-149.04zm233.18 291.93l0 -797.42 115.13 0 0 121.38c29.15,-55.32 56.84,-93.73 81.61,-110.63 24.78,-18.44 52.47,-27.66 83.07,-27.66 42.27,0 85.99,13.83 131.17,43.03l-45.18 124.45c-32.06,-18.44 -62.67,-27.66 -93.27,-27.66 -27.69,0 -53.93,9.22 -75.79,26.12 -21.85,18.44 -37.89,43.02 -46.63,73.75 -14.58,47.63 -21.86,101.41 -21.86,158.26l0 416.38 -128.25 0zm486.76 -946.46l0 -153.65 128.25 0 0 153.65 -128.25 0zm0 946.46l0 -797.42 128.25 0 0 797.42 -128.25 0zm817.59 -99.87c-48.1,43.02 -93.28,72.21 -137,90.65 -43.72,16.9 -91.82,26.12 -141.37,26.12 -83.07,0 -147.19,-21.51 -192.37,-64.53 -45.18,-41.48 -67.04,-96.8 -67.04,-162.87 0,-38.41 8.75,-75.28 24.78,-107.55 17.49,-32.26 39.35,-56.85 67.04,-76.82 27.68,-19.98 58.29,-33.8 91.81,-44.56 26.23,-6.14 64.13,-13.83 115.14,-19.97 103.47,-12.29 179.25,-27.66 228.8,-46.1 0,-18.43 0,-30.73 0,-35.34 0,-55.31 -11.66,-93.72 -36.43,-115.23 -32.06,-30.73 -81.61,-46.09 -145.74,-46.09 -61.21,0 -104.93,10.75 -134.08,33.8 -29.15,21.51 -49.55,61.46 -64.12,118.31l-125.34 -18.44c11.66,-56.85 30.61,-102.94 56.84,-136.75 26.24,-35.34 64.13,-61.46 113.68,-81.43 49.55,-18.44 106.39,-27.66 171.97,-27.66 64.12,0 116.59,7.69 157.4,24.59 40.8,15.36 69.95,35.34 88.89,59.92 18.95,24.58 32.06,55.31 40.81,92.19 4.37,23.04 5.83,64.53 5.83,124.45l0 178.23c0,125.99 2.91,204.35 8.75,238.15 4.37,33.8 14.57,66.07 30.6,96.8l-134.08 0c-13.11,-29.19 -20.4,-61.46 -24.77,-99.87zm-10.21 -299.61c-46.63,19.97 -116.58,36.87 -209.86,50.7 -52.46,7.69 -90.36,16.9 -112.22,26.12 -21.86,10.76 -37.89,24.59 -51,44.56 -11.66,18.44 -17.49,39.95 -17.49,63 0,36.87 13.11,66.06 39.34,90.65 26.24,23.04 64.13,35.34 113.68,35.34 49.55,0 93.27,-10.76 131.16,-33.81 39.36,-23.04 67.05,-53.77 84.54,-93.72 14.57,-29.19 21.85,-75.29 21.85,-133.67l0 -49.17zm604.81 278.1l17.49 119.84c-36.43,7.69 -68.5,12.3 -96.19,12.3 -46.63,0 -83.07,-7.69 -107.85,-23.05 -26.22,-15.37 -43.71,-36.88 -53.92,-61.46 -10.2,-26.12 -16.03,-78.36 -16.03,-159.79l0 -459.41 -94.73 0 0 -104.47 94.73 0 0 -196.67 128.25 -81.43 0 278.1 128.25 0 0 104.47 -128.25 0 0 467.09c0,38.41 2.92,62.99 7.29,73.75 4.37,12.29 11.66,19.97 21.86,27.66 10.21,6.14 24.78,9.22 43.73,9.22 13.11,0 32.06,-1.54 55.37,-6.15zm126.8 -825.08l0 -153.65 128.25 0 0 153.65 -128.25 0zm0 946.46l0 -797.42 128.25 0 0 797.42 -128.25 0zm530.48 0l-285.64 -797.42 136.99 0 161.76 477.84c17.49,50.7 33.52,104.48 49.56,159.79 10.2,-41.49 26.23,-92.19 46.63,-150.58l169.06 -487.05 131.16 0 -285.65 797.42 -123.87 0zm1015.79 -99.87c-48.1,43.02 -93.27,72.21 -136.99,90.65 -43.72,16.9 -91.82,26.12 -141.37,26.12 -83.07,0 -147.19,-21.51 -192.37,-64.53 -45.18,-41.48 -67.04,-96.8 -67.04,-162.87 0,-38.41 8.74,-75.28 24.77,-107.55 17.49,-32.26 39.36,-56.85 67.04,-76.82 27.69,-19.98 58.3,-33.8 91.82,-44.56 26.23,-6.14 64.12,-13.83 115.13,-19.97 103.48,-12.29 179.26,-27.66 228.81,-46.1 0,-18.43 0,-30.73 0,-35.34 0,-55.31 -11.66,-93.72 -36.43,-115.23 -32.06,-30.73 -81.62,-46.09 -145.75,-46.09 -61.2,0 -104.92,10.75 -134.07,33.8 -29.15,21.51 -49.55,61.46 -64.12,118.31l-125.34 -18.44c11.66,-56.85 30.61,-102.94 56.84,-136.75 26.23,-35.34 64.13,-61.46 113.68,-81.43 49.55,-18.44 106.38,-27.66 171.97,-27.66 64.12,0 116.59,7.69 157.39,24.59 40.81,15.36 69.96,35.34 88.9,59.92 18.94,24.58 32.06,55.31 40.81,92.19 4.37,23.04 5.83,64.53 5.83,124.45l0 178.23c0,125.99 2.91,204.35 8.75,238.15 4.37,33.8 14.56,66.07 30.59,96.8l-134.07 0c-13.12,-29.19 -20.4,-61.46 -24.78,-99.87zm-10.2 -299.61c-46.63,19.97 -116.59,36.87 -209.86,50.7 -52.47,7.69 -90.36,16.9 -112.22,26.12 -21.86,10.76 -37.89,24.59 -51.01,44.56 -11.65,18.44 -17.49,39.95 -17.49,63 0,36.87 13.12,66.06 39.35,90.65 26.23,23.04 64.13,35.34 113.68,35.34 49.55,0 93.27,-10.76 131.16,-33.81 39.36,-23.04 67.04,-53.77 84.53,-93.72 14.57,-29.19 21.86,-75.29 21.86,-133.67l0 -49.17zm275.44 161.33l126.79 -21.51c7.3,53.77 27.7,93.72 59.76,122.91 32.06,29.2 78.7,43.03 136.99,43.03 58.29,0 102.02,-12.3 131.17,-38.42 27.69,-24.58 42.25,-53.77 42.25,-89.11 0,-29.19 -13.1,-53.78 -37.88,-70.68 -18.95,-12.29 -62.67,-27.65 -131.17,-46.09 -94.73,-24.59 -158.85,-46.1 -195.29,-64.53 -36.43,-18.44 -64.13,-44.56 -83.07,-76.83 -17.49,-30.73 -27.68,-67.6 -27.68,-106.01 0,-35.34 7.28,-67.61 23.31,-98.34 16.03,-30.73 36.43,-55.31 62.67,-75.28 20.4,-15.37 46.64,-29.2 81.61,-39.95 34.98,-10.76 71.42,-15.37 110.76,-15.37 58.3,0 110.76,9.22 155.94,27.66 45.18,16.9 77.25,41.49 99.1,72.21 20.4,30.73 36.43,72.22 43.73,124.46l-125.34 18.44c-5.82,-41.49 -21.86,-73.75 -49.55,-96.8 -26.24,-24.59 -65.58,-35.34 -115.13,-35.34 -58.3,0 -100.57,10.75 -125.34,30.73 -24.78,19.97 -37.89,44.56 -37.89,72.21 0,16.9 5.83,32.27 16.03,47.63 10.2,13.83 26.23,26.12 48.09,35.34 13.12,4.61 51.02,16.9 113.68,33.8 90.36,26.12 153.02,47.63 189.46,63 36.44,16.9 64.12,39.95 84.53,70.68 20.4,30.73 30.61,69.14 30.61,115.23 0,44.56 -11.67,87.58 -37.9,127.53 -24.77,39.95 -59.75,70.67 -107.84,92.19 -46.64,21.51 -99.11,32.26 -158.86,32.26 -97.65,0 -173.42,-21.51 -224.44,-64.53 -52.46,-43.02 -84.52,-106.02 -99.1,-190.52z"/>
  <path class="fil1" d="M7540.06 834.32c672.14,0 1217.04,527.96 1217.04,1179.26 0,651.27 -544.9,1179.2 -1217.04,1179.2 -672.19,0 -1217.09,-527.93 -1217.09,-1179.2 0,-651.3 544.9,-1179.26 1217.09,-1179.26z"/>
  <polygon class="fil2" points="3410.18,1333.67 5279.77,6375.28 1540.6,6375.28 "/>
  <polygon class="fil3" points="11104.2,3171.08 12983.84,194.13 9224.6,194.13 "/>
 </g>
</svg>
